<svg width="1024" height="1024" viewBox="0 0 1024 1024" fill="none" xmlns="http://www.w3.org/2000/svg">
<g filter="url(#filter0_d_19_3)">
<rect x="100" y="100" width="824" height="824" rx="200" fill="url(#paint0_linear_19_3)"/>
</g>
<rect x="239" y="304" width="546" height="416" rx="20" fill="white"/>
<path d="M372 381C372 378.239 374.239 376 377 376H447C449.761 376 452 378.239 452 381V431C452 433.761 449.761 436 447 436H377C374.239 436 372 433.761 372 431V381Z" fill="#3CAD6E"/>
<path d="M472 381C472 378.239 474.239 376 477 376H547C549.761 376 552 378.239 552 381V431C552 433.761 549.761 436 547 436H477C474.239 436 472 433.761 472 431V381Z" fill="#3CAD6E"/>
<path d="M572 381C572 378.239 574.239 376 577 376H647C649.761 376 652 378.239 652 381V431C652 433.761 649.761 436 647 436H577C574.239 436 572 433.761 572 431V381Z" fill="#3CAD6E"/>
<path d="M676 381C676 378.239 678.239 376 681 376H751C753.761 376 756 378.239 756 381V431C756 433.761 753.761 436 751 436H681C678.239 436 676 433.761 676 431V381Z" fill="#3CAD6E"/>
<path d="M268 381C268 378.239 270.239 376 273 376H343C345.761 376 348 378.239 348 381V431C348 433.761 345.761 436 343 436H273C270.239 436 268 433.761 268 431V381Z" fill="#3CAD6E"/>
<path d="M308 487C308 484.239 310.239 482 313 482H387C389.761 482 392 484.239 392 487V537C392 539.761 389.761 542 387 542H313C310.239 542 308 539.761 308 537V487Z" fill="#3CAD6E"/>
<path d="M416 487C416 484.239 418.239 482 421 482H495C497.761 482 500 484.239 500 487V537C500 539.761 497.761 542 495 542H421C418.239 542 416 539.761 416 537V487Z" fill="#3CAD6E"/>
<path d="M524 487C524 484.239 526.239 482 529 482H603C605.761 482 608 484.239 608 487V537C608 539.761 605.761 542 603 542H529C526.239 542 524 539.761 524 537V487Z" fill="#3CAD6E"/>
<path d="M632 487C632 484.239 634.239 482 637 482H711C713.761 482 716 484.239 716 487V537C716 539.761 713.761 542 711 542H637C634.239 542 632 539.761 632 537V487Z" fill="#3CAD6E"/>
<path d="M674 593C674 590.239 676.239 588 679 588H753C755.761 588 758 590.239 758 593V643C758 645.761 755.761 648 753 648H679C676.239 648 674 645.761 674 643V593Z" fill="#3CAD6E"/>
<path d="M268 593C268 590.239 270.239 588 273 588H347C349.761 588 352 590.239 352 593V643C352 645.761 349.761 648 347 648H273C270.239 648 268 645.761 268 643V593Z" fill="#3CAD6E"/>
<path d="M375 593C375 590.239 377.239 588 380 588H644C646.761 588 649 590.239 649 593V643C649 645.761 646.761 648 644 648H380C377.239 648 375 645.761 375 643V593Z" fill="#3CAD6E"/>
<defs>
<filter id="filter0_d_19_3" x="80" y="94" width="864" height="864" filterUnits="userSpaceOnUse" color-interpolation-filters="sRGB">
<feFlood flood-opacity="0" result="BackgroundImageFix"/>
<feColorMatrix in="SourceAlpha" type="matrix" values="0 0 0 0 0 0 0 0 0 0 0 0 0 0 0 0 0 0 127 0" result="hardAlpha"/>
<feOffset dy="14"/>
<feGaussianBlur stdDeviation="10"/>
<feComposite in2="hardAlpha" operator="out"/>
<feColorMatrix type="matrix" values="0 0 0 0 0 0 0 0 0 0 0 0 0 0 0 0 0 0 0.25 0"/>
<feBlend mode="normal" in2="BackgroundImageFix" result="effect1_dropShadow_19_3"/>
<feBlend mode="normal" in="SourceGraphic" in2="effect1_dropShadow_19_3" result="shape"/>
</filter>
<linearGradient id="paint0_linear_19_3" x1="512" y1="100" x2="512" y2="924" gradientUnits="userSpaceOnUse">
<stop stop-color="#52EB96"/>
<stop offset="1" stop-color="#205D3B"/>
</linearGradient>
</defs>
</svg>
